<?xml version="1.0" standalone="no"?>
<!DOCTYPE svg PUBLIC "-//W3C//DTD SVG 20010904//EN"
 "http://www.w3.org/TR/2001/REC-SVG-20010904/DTD/svg10.dtd">
<svg version="1.0" xmlns="http://www.w3.org/2000/svg"
 width="200.000000pt" height="200.000000pt" viewBox="0 0 200.000000 200.000000"
 preserveAspectRatio="xMidYMid meet">
<metadata>
Created by potrace 1.14, written by Peter Selinger 2001-2017
</metadata>
<g transform="translate(0.000000,200.000000) scale(0.100000,-0.100000)"
fill="#000000" stroke="none">
<path d="M834 1886 c-160 -37 -301 -115 -419 -233 -172 -172 -264 -397 -265
-649 -1 -416 243 -755 630 -876 65 -20 95 -23 225 -23 168 0 237 15 370 82
219 109 390 322 457 572 31 115 36 308 10 431 -68 329 -291 579 -607 680 -89
29 -307 37 -401 16z"/>
</g>
</svg>
